<?xml version="1.0" encoding="UTF-8" standalone="no"?>
<svg
   xmlns:dc="http://purl.org/dc/elements/1.1/"
   xmlns:cc="http://creativecommons.org/ns#"
   xmlns:rdf="http://www.w3.org/1999/02/22-rdf-syntax-ns#"
   xmlns:svg="http://www.w3.org/2000/svg"
   xmlns="http://www.w3.org/2000/svg"
   viewBox="0 0 2801.3333 2801.3333"
   height="2801.3333"
   width="2801.3333"
   xml:space="preserve"
   id="svg2"
   version="1.1"><metadata
     id="metadata8"><rdf:RDF><cc:Work
         rdf:about=""><dc:format>image/svg+xml</dc:format><dc:type
           rdf:resource="http://purl.org/dc/dcmitype/StillImage" /></cc:Work></rdf:RDF></metadata><defs
     id="defs6" /><g
     transform="matrix(1.3333333,0,0,-1.3333333,0,2801.3333)"
     id="g10"><g
       transform="scale(0.1)"
       id="g12"><path
         id="path14"
         style="fill:#88d9f3;fill-opacity:1;fill-rule:evenodd;stroke:none"
         d="m 6909.08,7604.7 c 2247.29,0 4083.22,1833.5 4083.22,4083.2 0,2249.6 -1835.93,4083.2 -4083.22,4083.2 -2249.64,0 -4083.21,-1833.6 -4083.21,-4083.2 0,-2249.7 1833.57,-4083.2 4083.21,-4083.2 v 0" /><path
         id="path16"
         style="fill:#65cdf5;fill-opacity:1;fill-rule:evenodd;stroke:none"
         d="m 7663.66,8220.5 c -1535.02,-275 -3559,801.6 -4026.79,2153.3 874.47,-634.7 1779.5,-768.7 2524.68,-792.2 691.11,-21.1 1205.92,279.7 1612.59,615.9 559.47,463.1 1255.29,808.6 1739.54,307.9 C 10348.2,9642.7 8629.8,8392.1 7663.66,8220.5 v 0" /><path
         id="path18"
         style="fill:#ffffff;fill-opacity:1;fill-rule:nonzero;stroke:none"
         d="m 6847.96,14461.7 c -225.67,-11.8 -420.78,162.2 -432.54,390.2 -14.1,225.7 159.85,420.8 387.87,432.6 364.37,21.1 1057.83,-94.1 1671.37,-385.6 458.39,-218.6 888.57,-535.9 1144.8,-977.9 112.83,-195.1 47.01,-448.9 -150.45,-561.8 -197.46,-115.2 -448.99,-47 -564.17,150.5 -159.85,277.4 -458.39,488.9 -782.79,644.1 -486.6,230.3 -1008.46,324.4 -1274.09,307.9 v 0" /><path
         id="path20"
         style="fill:#ffffff;fill-opacity:1;fill-rule:evenodd;stroke:none"
         d="m 5757.22,14231.3 c 251.53,0 456.04,204.6 456.04,456.1 0,249.2 -204.51,453.7 -456.04,453.7 -249.17,0 -453.69,-204.5 -453.69,-453.7 0,-251.5 204.52,-456.1 453.69,-456.1 v 0" /><path
         id="path22"
         style="fill:#88d9f3;fill-opacity:1;fill-rule:evenodd;stroke:none"
         d="m 12019.5,5705.3 c 1596.2,0 2896.1,1302.3 2896.1,2896.1 0,1596.1 -1299.9,2898.4 -2896.1,2898.4 -1596.1,0 -2898.4,-1302.3 -2898.4,-2898.4 0,-1593.8 1302.3,-2896.1 2898.4,-2896.1 v 0" /><path
         id="path24"
         style="fill:#65cdf5;fill-opacity:1;fill-rule:evenodd;stroke:none"
         d="m 12555.5,6142.5 c -1090.7,-195.1 -2524.7,568.9 -2856.12,1528 620.62,-451.4 1262.32,-545.4 1788.92,-561.9 491.3,-14.1 858,197.5 1144.8,434.9 397.3,329.1 890.9,573.6 1234.1,221 592.4,-613.5 -625.3,-1499.8 -1311.7,-1622 v 0" /><path
         id="path26"
         style="fill:#ffffff;fill-opacity:1;fill-rule:nonzero;stroke:none"
         d="m 11977.2,10571.3 c -162.2,-9.4 -298.5,115.1 -307.9,275 -9.4,162.2 115.2,298.5 275,307.9 258.6,16.5 749.9,-65.8 1187.1,-272.6 324.4,-155.2 627.7,-380.9 811,-693.5 80,-141 32.9,-319.7 -108.1,-399.6 -138.7,-82.3 -317.3,-32.9 -399.6,105.8 -112.9,197.4 -324.4,347.9 -554.8,458.3 -345.5,162.2 -714.6,228.1 -902.7,218.7 v 0" /><path
         id="path28"
         style="fill:#ffffff;fill-opacity:1;fill-rule:evenodd;stroke:none"
         d="m 11203.8,10406.7 c 176.3,0 322.1,145.8 322.1,322.1 0,178.6 -145.8,324.4 -322.1,324.4 -178.6,0 -324.4,-145.8 -324.4,-324.4 0,-176.3 145.8,-322.1 324.4,-322.1 v 0" /><path
         id="path30"
         style="fill:#88d9f3;fill-opacity:1;fill-rule:evenodd;stroke:none"
         d="m 12426.2,12926.7 c 862.7,0 1568,705.2 1568,1570.3 0,862.7 -705.3,1567.9 -1568,1567.9 -865,0 -1570.3,-705.2 -1570.3,-1567.9 0,-865.1 705.3,-1570.3 1570.3,-1570.3 v 0" /><path
         id="path32"
         style="fill:#65cdf5;fill-opacity:1;fill-rule:evenodd;stroke:none"
         d="m 12715.4,13164.1 c -590.1,-105.8 -1365.8,308 -1546.8,827.5 336.1,-244.5 684,-296.2 968.5,-303.3 268,-9.4 465.4,105.8 620.6,235.1 213.9,178.7 481.9,310.3 667.6,119.9 322,-331.5 -338.5,-813.4 -709.9,-879.2 v 0" /><path
         id="path34"
         style="fill:#ffffff;fill-opacity:1;fill-rule:nonzero;stroke:none"
         d="m 12402.7,15561.8 c -87,-4.7 -162.2,61.2 -166.9,150.5 -4.7,87 61.1,159.8 148.1,166.9 141,7 406.7,-37.6 644.1,-150.4 174,-82.3 340.9,-204.6 437.2,-373.8 44.7,-75.2 18.8,-174 -56.4,-216.3 -75.2,-44.6 -171.6,-18.8 -216.2,56.4 -61.2,105.8 -176.3,188.1 -300.9,249.2 -188.1,87 -387.9,124.6 -489,117.5 v 0" /><path
         id="path36"
         style="fill:#ffffff;fill-opacity:1;fill-rule:evenodd;stroke:none"
         d="m 11984.3,15472.5 c 96.4,0 173.9,79.9 173.9,176.3 0,96.4 -77.5,174 -173.9,174 -96.4,0 -176.3,-77.6 -176.3,-174 0,-96.4 79.9,-176.3 176.3,-176.3 v 0" /><path
         id="path38"
         style="fill:#88d9f3;fill-opacity:1;fill-rule:evenodd;stroke:none"
         d="m 8350.07,5552.5 c 942.64,0 1713.63,771 1713.63,1713.6 0,942.7 -770.99,1713.7 -1713.63,1713.7 -942.64,0 -1713.68,-771 -1713.68,-1713.7 0,-942.6 771.04,-1713.6 1713.68,-1713.6 v 0" /><path
         id="path40"
         style="fill:#65cdf5;fill-opacity:1;fill-rule:evenodd;stroke:none"
         d="m 8667.42,5811 c -644.1,-115.1 -1492.71,336.2 -1690.17,905.1 366.71,-268 747.53,-324.4 1060.17,-333.8 289.14,-9.4 505.41,117.5 674.66,258.6 235.07,195.1 526.56,338.5 731.07,129.2 350.26,-362 -371.41,-886.2 -775.73,-959.1 v 0" /><path
         id="path42"
         style="fill:#ffffff;fill-opacity:1;fill-rule:nonzero;stroke:none"
         d="m 8324.21,8429.8 c -94.03,-4.7 -176.3,68.1 -181.01,162.2 -4.7,96.3 68.18,178.6 162.2,183.3 152.8,9.4 444.29,-40 700.52,-162.2 192.76,-91.7 373.76,-225.7 481.9,-409 47.01,-84.6 18.8,-190.4 -63.47,-237.4 -82.28,-47.1 -188.06,-18.8 -237.42,63.4 -68.18,115.2 -190.41,204.5 -326.76,270.4 -204.51,96.3 -423.13,136.3 -535.96,129.3 v 0" /><path
         id="path44"
         style="fill:#ffffff;fill-opacity:1;fill-rule:evenodd;stroke:none"
         d="m 7868.17,8333.4 c 103.43,0 190.41,84.6 190.41,190.4 0,105.8 -86.98,190.4 -190.41,190.4 -105.78,0 -192.76,-84.6 -192.76,-190.4 0,-105.8 86.98,-190.4 192.76,-190.4 v 0" /><path
         id="path46"
         style="fill:#88d9f3;fill-opacity:1;fill-rule:evenodd;stroke:none"
         d="m 14873.3,4882.5 c 444.3,0 808.7,362 808.7,806.3 0,444.3 -364.4,808.7 -808.7,808.7 -444.3,0 -806.3,-364.4 -806.3,-808.7 0,-444.3 362,-806.3 806.3,-806.3 v 0" /><path
         id="path48"
         style="fill:#65cdf5;fill-opacity:1;fill-rule:evenodd;stroke:none"
         d="m 15023.8,5002.4 c -303.3,-54.1 -705.2,159.8 -796.9,427.8 173.9,-126.9 352.6,-152.8 498.3,-157.5 138.7,-4.7 239.8,54.1 319.7,122.3 110.5,91.7 249.2,159.8 343.2,61.1 166.9,-171.6 -173.9,-418.4 -364.3,-453.7 v 0" /><path
         id="path50"
         style="fill:#ffffff;fill-opacity:1;fill-rule:nonzero;stroke:none"
         d="m 14861.6,6238.9 c -44.7,-4.7 -82.3,30.5 -84.7,75.2 -2.3,44.7 30.6,84.6 75.3,87 72.8,4.7 209.2,-18.8 331.4,-77.6 91.7,-42.3 176.3,-105.8 225.7,-192.8 23.5,-37.6 9.4,-89.3 -28.2,-110.4 -40,-23.5 -89.4,-9.4 -112.9,28.2 -30.5,56.4 -89.3,98.7 -155.1,129.3 -96.4,44.6 -197.5,63.4 -251.5,61.1 v 0" /><path
         id="path52"
         style="fill:#ffffff;fill-opacity:1;fill-rule:evenodd;stroke:none"
         d="m 14645.3,6191.9 c 51.7,0 91.7,39.9 91.7,89.3 0,51.7 -40,91.7 -91.7,91.7 -49.4,0 -89.3,-40 -89.3,-91.7 0,-49.4 39.9,-89.3 89.3,-89.3 v 0" /><path
         id="path54"
         style="fill:#88d9f3;fill-opacity:1;fill-rule:evenodd;stroke:none"
         d="m 2162.97,12686.9 c 397.27,0 721.67,322.1 721.67,719.3 0,399.7 -324.4,721.7 -721.67,721.7 -397.27,0 -721.67,-322 -721.67,-721.7 0,-397.2 324.4,-719.3 721.67,-719.3 v 0" /><path
         id="path56"
         style="fill:#65cdf5;fill-opacity:1;fill-rule:evenodd;stroke:none"
         d="m 2296.96,12795 c -272.68,-49.3 -629.99,141.1 -712.27,380.9 155.15,-112.9 315,-136.4 446.64,-141.1 122.24,-2.3 213.91,49.4 284.44,108.1 98.73,82.3 220.96,143.5 307.94,56.5 148.1,-152.8 -157.5,-373.8 -326.75,-404.4 v 0" /><path
         id="path58"
         style="fill:#ffffff;fill-opacity:1;fill-rule:nonzero;stroke:none"
         d="m 2153.57,13897.5 c -42.32,-2.3 -75.23,28.2 -77.58,68.2 -2.35,40 28.21,75.2 68.17,77.6 65.82,2.3 188.06,-16.5 296.19,-68.2 79.93,-40 155.15,-96.4 202.17,-173.9 18.8,-33 7.05,-77.6 -28.21,-98.8 -32.91,-21.1 -77.58,-7 -98.73,25.9 -28.21,49.4 -79.93,87 -138.7,115.2 -84.62,39.9 -178.65,56.4 -223.31,54 v 0" /><path
         id="path60"
         style="fill:#ffffff;fill-opacity:1;fill-rule:evenodd;stroke:none"
         d="m 1960.81,13857.6 c 42.31,0 79.92,35.2 79.92,79.9 0,44.7 -37.61,79.9 -79.92,79.9 -44.67,0 -82.28,-35.2 -82.28,-79.9 0,-44.7 37.61,-79.9 82.28,-79.9 v 0" /><path
         id="path62"
         style="fill:none;stroke:#ffffff;stroke-width:28.3465004;stroke-linecap:round;stroke-linejoin:round;stroke-miterlimit:10;stroke-dasharray:none;stroke-opacity:1"
         d="m 4628.88,4971.8 c 599.43,0 1088.38,489 1088.38,1088.4 0,601.8 -488.95,1090.8 -1088.38,1090.8 -599.44,0 -1088.39,-489 -1088.39,-1090.8 0,-599.4 488.95,-1088.4 1088.39,-1088.4 z" /><g
         transform="scale(1.2071)"
         id="g64"><path
           id="path66"
           style="fill:#88d9f3;fill-opacity:1;fill-rule:evenodd;stroke:none"
           d="m 13443.2,5920.2 c 1573.5,0 2856.8,1283.32 2856.8,2856.84 0,1573.46 -1283.3,2856.86 -2856.8,2856.86 -1573.5,0 -2856.9,-1283.4 -2856.9,-2856.86 0,-1573.52 1283.4,-2856.84 2856.9,-2856.84 v 0" /></g><g
         transform="scale(1.17379)"
         id="g68"><path
           id="path70"
           style="fill:#65cdf5;fill-opacity:1;fill-rule:evenodd;stroke:none"
           d="m 14367.5,6530.8 c -1103.6,-196.28 -2559.4,578.73 -2896,1550.02 628.9,-456.55 1279.7,-552.73 1814.5,-568.75 498.6,-16.02 869.2,200.29 1161.5,440.62 402.6,334.47 903.3,582.73 1251.7,224.32 600.8,-620.9 -634.9,-1522.08 -1331.7,-1646.21 v 0" /></g><g
         transform="scale(1.14192)"
         id="g72"><path
           id="path74"
           style="fill:#ffffff;fill-opacity:1;fill-rule:nonzero;stroke:none"
           d="m 14167.4,11330.4 c -168.9,-8.2 -312.9,119.4 -321.2,288.2 -10.3,168.8 119.4,310.9 286.1,321.2 269.8,16.4 782.3,-70 1237.2,-286.2 339.7,-160.6 656.7,-397.3 846.1,-722.5 84.4,-146.2 35,-331.5 -111.1,-415.9 -146.2,-84.4 -331.5,-35 -415.8,111.2 -119.5,203.8 -339.7,362.3 -580.6,475.5 -358.2,170.9 -745.2,240.9 -940.7,228.5 v 0" /></g><path
         id="path76"
         style="fill:#ffffff;fill-opacity:1;fill-rule:evenodd;stroke:none"
         d="m 15256.5,12743.3 c 211.6,0 383.2,171.6 383.2,385.6 0,211.5 -171.6,383.1 -383.2,383.1 -211.6,0 -385.5,-171.6 -385.5,-383.1 0,-214 173.9,-385.6 385.5,-385.6 v 0" /><g
         transform="scale(1.28865)"
         id="g78"><path
           id="path80"
           style="fill:none;stroke:#231f20;stroke-width:7.76005983;stroke-linecap:butt;stroke-linejoin:miter;stroke-miterlimit:10;stroke-dasharray:none;stroke-opacity:1"
           d="M 16300,3.88003 H 3.88003 V 16300 H 16300 Z" /></g></g></g></svg>